<?xml version="1.0" encoding="UTF-8" standalone="no"?>
<!DOCTYPE svg PUBLIC "-//W3C//DTD SVG 1.1//EN"
 "http://www.w3.org/Graphics/SVG/1.1/DTD/svg11.dtd">
<!-- Generated by graphviz version 14.1.5 (20260411.2331)
 -->
<!-- Title: packages_AI&#45;Song&#45;Generation&#45;Platform Pages: 1 -->
<svg width="5057pt" height="188pt"
 viewBox="0.00 0.00 5057.00 188.00" xmlns="http://www.w3.org/2000/svg" xmlns:xlink="http://www.w3.org/1999/xlink">
<g id="graph0" class="graph" transform="scale(1 1) rotate(0) translate(4 184)">
<title>packages_AI&#45;Song&#45;Generation&#45;Platform</title>
<polygon fill="white" stroke="none" points="-4,4 -4,-184 5053.25,-184 5053.25,4 -4,4"/>
<!-- backend.playlists -->
<g id="node1" class="node">
<title>backend.playlists</title>
<polygon fill="none" stroke="black" points="141.88,-36 32.12,-36 32.12,0 141.88,0 141.88,-36"/>
<text xml:space="preserve" text-anchor="start" x="40.12" y="-13.5" font-family="Times,serif" font-size="14.00">backend.playlists</text>
</g>
<!-- backend.playlists.admin -->
<g id="node2" class="node">
<title>backend.playlists.admin</title>
<polygon fill="none" stroke="black" points="148,-108 0,-108 0,-72 148,-72 148,-108"/>
<text xml:space="preserve" text-anchor="start" x="8" y="-85.5" font-family="Times,serif" font-size="14.00">backend.playlists.admin</text>
</g>
<!-- backend.playlists.models -->
<g id="node7" class="node">
<title>backend.playlists.models</title>
<polygon fill="none" stroke="black" points="252.62,-180 99.38,-180 99.38,-144 252.62,-144 252.62,-180"/>
<text xml:space="preserve" text-anchor="start" x="107.38" y="-157.5" font-family="Times,serif" font-size="14.00">backend.playlists.models</text>
</g>
<!-- backend.playlists.admin&#45;&gt;backend.playlists.models -->
<g id="edge1" class="edge">
<title>backend.playlists.admin&#45;&gt;backend.playlists.models</title>
<path fill="none" stroke="black" d="M99.48,-108.48C112.23,-117.24 127.85,-127.96 141.65,-137.42"/>
<polygon fill="black" stroke="black" points="149.84,-143.05 139.05,-141.1 146.73,-140.91 141.6,-137.39 141.6,-137.39 141.6,-137.39 146.73,-140.91 144.15,-133.68 149.84,-143.05"/>
</g>
<!-- backend.playlists.apps -->
<g id="node3" class="node">
<title>backend.playlists.apps</title>
<polygon fill="none" stroke="black" points="461.12,-36 322.88,-36 322.88,0 461.12,0 461.12,-36"/>
<text xml:space="preserve" text-anchor="start" x="330.88" y="-13.5" font-family="Times,serif" font-size="14.00">backend.playlists.apps</text>
</g>
<!-- backend.playlists.migrations -->
<g id="node4" class="node">
<title>backend.playlists.migrations</title>
<polygon fill="none" stroke="black" points="651,-36 479,-36 479,0 651,0 651,-36"/>
<text xml:space="preserve" text-anchor="start" x="487" y="-13.5" font-family="Times,serif" font-size="14.00">backend.playlists.migrations</text>
</g>
<!-- backend.playlists.migrations.0001_initial -->
<g id="node5" class="node">
<title>backend.playlists.migrations.0001_initial</title>
<polygon fill="none" stroke="black" points="910.5,-36 669.5,-36 669.5,0 910.5,0 910.5,-36"/>
<text xml:space="preserve" text-anchor="start" x="677.5" y="-13.5" font-family="Times,serif" font-size="14.00">backend.playlists.migrations.0001_initial</text>
</g>
<!-- backend.playlists.migrations.0002_playlist_cover_image -->
<g id="node6" class="node">
<title>backend.playlists.migrations.0002_playlist_cover_image</title>
<polygon fill="none" stroke="black" points="1255.25,-36 928.75,-36 928.75,0 1255.25,0 1255.25,-36"/>
<text xml:space="preserve" text-anchor="start" x="936.75" y="-13.5" font-family="Times,serif" font-size="14.00">backend.playlists.migrations.0002_playlist_cover_image</text>
</g>
<!-- backend.playlists.serializers -->
<g id="node8" class="node">
<title>backend.playlists.serializers</title>
<polygon fill="none" stroke="black" points="372.12,-108 203.88,-108 203.88,-72 372.12,-72 372.12,-108"/>
<text xml:space="preserve" text-anchor="start" x="211.88" y="-85.5" font-family="Times,serif" font-size="14.00">backend.playlists.serializers</text>
</g>
<!-- backend.playlists.serializers&#45;&gt;backend.playlists.models -->
<g id="edge2" class="edge">
<title>backend.playlists.serializers&#45;&gt;backend.playlists.models</title>
<path fill="none" stroke="black" d="M260.03,-108.48C245.75,-117.4 228.21,-128.37 212.85,-137.97"/>
<polygon fill="black" stroke="black" points="204.65,-143.09 210.75,-133.98 207.86,-141.09 213.13,-137.79 213.13,-137.79 213.13,-137.79 207.86,-141.09 215.52,-141.61 204.65,-143.09"/>
</g>
<!-- backend.playlists.urls -->
<g id="node9" class="node">
<title>backend.playlists.urls</title>
<polygon fill="none" stroke="black" points="1406.88,-36 1273.12,-36 1273.12,0 1406.88,0 1406.88,-36"/>
<text xml:space="preserve" text-anchor="start" x="1281.12" y="-13.5" font-family="Times,serif" font-size="14.00">backend.playlists.urls</text>
</g>
<!-- backend.playlists.views -->
<g id="node10" class="node">
<title>backend.playlists.views</title>
<polygon fill="none" stroke="black" points="304.5,-36 159.5,-36 159.5,0 304.5,0 304.5,-36"/>
<text xml:space="preserve" text-anchor="start" x="167.5" y="-13.5" font-family="Times,serif" font-size="14.00">backend.playlists.views</text>
</g>
<!-- backend.playlists.views&#45;&gt;backend.playlists.models -->
<g id="edge3" class="edge">
<title>backend.playlists.views&#45;&gt;backend.playlists.models</title>
<path fill="none" stroke="black" d="M217.43,-36.09C209.69,-45.99 200.63,-59.03 195,-72 186.58,-91.38 181.77,-114.79 179.1,-132.74"/>
<polygon fill="black" stroke="black" points="177.8,-142.44 174.67,-131.93 178.3,-138.69 179.13,-132.53 179.13,-132.53 179.13,-132.53 178.3,-138.69 183.59,-133.13 177.8,-142.44"/>
</g>
<!-- backend.playlists.views&#45;&gt;backend.playlists.serializers -->
<g id="edge4" class="edge">
<title>backend.playlists.views&#45;&gt;backend.playlists.serializers</title>
<path fill="none" stroke="black" d="M245.84,-36.3C252.35,-44.44 260.25,-54.31 267.44,-63.3"/>
<polygon fill="black" stroke="black" points="273.56,-70.94 263.79,-65.95 271.19,-67.99 267.31,-63.14 267.31,-63.14 267.31,-63.14 271.19,-67.99 270.82,-60.32 273.56,-70.94"/>
</g>
<!-- backend.songs -->
<g id="node11" class="node">
<title>backend.songs</title>
<polygon fill="none" stroke="black" points="1520.75,-36 1425.25,-36 1425.25,0 1520.75,0 1520.75,-36"/>
<text xml:space="preserve" text-anchor="start" x="1433.25" y="-13.5" font-family="Times,serif" font-size="14.00">backend.songs</text>
</g>
<!-- backend.songs.admin -->
<g id="node12" class="node">
<title>backend.songs.admin</title>
<polygon fill="none" stroke="black" points="1470.88,-108 1337.12,-108 1337.12,-72 1470.88,-72 1470.88,-108"/>
<text xml:space="preserve" text-anchor="start" x="1345.12" y="-85.5" font-family="Times,serif" font-size="14.00">backend.songs.admin</text>
</g>
<!-- backend.songs.models -->
<g id="node17" class="node">
<title>backend.songs.models</title>
<polygon fill="none" stroke="black" points="1568.5,-180 1429.5,-180 1429.5,-144 1568.5,-144 1568.5,-180"/>
<text xml:space="preserve" text-anchor="start" x="1437.5" y="-157.5" font-family="Times,serif" font-size="14.00">backend.songs.models</text>
</g>
<!-- backend.songs.admin&#45;&gt;backend.songs.models -->
<g id="edge5" class="edge">
<title>backend.songs.admin&#45;&gt;backend.songs.models</title>
<path fill="none" stroke="black" d="M1427.48,-108.3C1439.24,-116.97 1453.67,-127.6 1466.48,-137.04"/>
<polygon fill="black" stroke="black" points="1474.48,-142.93 1463.76,-140.62 1471.43,-140.69 1466.43,-137 1466.43,-137 1466.43,-137 1471.43,-140.69 1469.1,-133.38 1474.48,-142.93"/>
</g>
<!-- backend.songs.apps -->
<g id="node13" class="node">
<title>backend.songs.apps</title>
<polygon fill="none" stroke="black" points="1986,-36 1862,-36 1862,0 1986,0 1986,-36"/>
<text xml:space="preserve" text-anchor="start" x="1870" y="-13.5" font-family="Times,serif" font-size="14.00">backend.songs.apps</text>
</g>
<!-- backend.songs.migrations -->
<g id="node14" class="node">
<title>backend.songs.migrations</title>
<polygon fill="none" stroke="black" points="2161.88,-36 2004.12,-36 2004.12,0 2161.88,0 2161.88,-36"/>
<text xml:space="preserve" text-anchor="start" x="2012.12" y="-13.5" font-family="Times,serif" font-size="14.00">backend.songs.migrations</text>
</g>
<!-- backend.songs.migrations.0001_initial -->
<g id="node15" class="node">
<title>backend.songs.migrations.0001_initial</title>
<polygon fill="none" stroke="black" points="2406.38,-36 2179.62,-36 2179.62,0 2406.38,0 2406.38,-36"/>
<text xml:space="preserve" text-anchor="start" x="2187.62" y="-13.5" font-family="Times,serif" font-size="14.00">backend.songs.migrations.0001_initial</text>
</g>
<!-- backend.songs.migrations.0002_alter_song_genre -->
<g id="node16" class="node">
<title>backend.songs.migrations.0002_alter_song_genre</title>
<polygon fill="none" stroke="black" points="2713.12,-36 2424.88,-36 2424.88,0 2713.12,0 2713.12,-36"/>
<text xml:space="preserve" text-anchor="start" x="2432.88" y="-13.5" font-family="Times,serif" font-size="14.00">backend.songs.migrations.0002_alter_song_genre</text>
</g>
<!-- backend.songs.serializers -->
<g id="node18" class="node">
<title>backend.songs.serializers</title>
<polygon fill="none" stroke="black" points="1681,-108 1527,-108 1527,-72 1681,-72 1681,-108"/>
<text xml:space="preserve" text-anchor="start" x="1535" y="-85.5" font-family="Times,serif" font-size="14.00">backend.songs.serializers</text>
</g>
<!-- backend.songs.serializers&#45;&gt;backend.songs.models -->
<g id="edge6" class="edge">
<title>backend.songs.serializers&#45;&gt;backend.songs.models</title>
<path fill="none" stroke="black" d="M1577.77,-108.48C1564.52,-117.32 1548.26,-128.16 1533.95,-137.7"/>
<polygon fill="black" stroke="black" points="1525.9,-143.06 1531.73,-133.77 1529.05,-140.97 1534.23,-137.52 1534.23,-137.52 1534.23,-137.52 1529.05,-140.97 1536.72,-141.26 1525.9,-143.06"/>
</g>
<!-- backend.songs.services -->
<g id="node19" class="node">
<title>backend.songs.services</title>
<polygon fill="none" stroke="black" points="2874.38,-36 2731.62,-36 2731.62,0 2874.38,0 2874.38,-36"/>
<text xml:space="preserve" text-anchor="start" x="2739.62" y="-13.5" font-family="Times,serif" font-size="14.00">backend.songs.services</text>
</g>
<!-- backend.songs.services.generator_factory -->
<g id="node20" class="node">
<title>backend.songs.services.generator_factory</title>
<polygon fill="none" stroke="black" points="3135.25,-36 2892.75,-36 2892.75,0 3135.25,0 3135.25,-36"/>
<text xml:space="preserve" text-anchor="start" x="2900.75" y="-13.5" font-family="Times,serif" font-size="14.00">backend.songs.services.generator_factory</text>
</g>
<!-- backend.songs.services.generator_strategy -->
<g id="node21" class="node">
<title>backend.songs.services.generator_strategy</title>
<polygon fill="none" stroke="black" points="3137.5,-180 2890.5,-180 2890.5,-144 3137.5,-144 3137.5,-180"/>
<text xml:space="preserve" text-anchor="start" x="2898.5" y="-157.5" font-family="Times,serif" font-size="14.00">backend.songs.services.generator_strategy</text>
</g>
<!-- backend.songs.services.generator_factory&#45;&gt;backend.songs.services.generator_strategy -->
<g id="edge7" class="edge">
<title>backend.songs.services.generator_factory&#45;&gt;backend.songs.services.generator_strategy</title>
<path fill="none" stroke="black" d="M2937.83,-36.38C2919.83,-44.23 2902.77,-55.59 2892,-72 2883.23,-85.38 2883.23,-94.62 2892,-108 2900.75,-121.34 2913.65,-131.33 2927.84,-138.82"/>
<polygon fill="black" stroke="black" points="2936.73,-143.09 2925.77,-142.82 2933.32,-141.46 2927.71,-138.76 2927.71,-138.76 2927.71,-138.76 2933.32,-141.46 2929.66,-134.71 2936.73,-143.09"/>
</g>
<!-- backend.songs.services.mock_strategy -->
<g id="node22" class="node">
<title>backend.songs.services.mock_strategy</title>
<polygon fill="none" stroke="black" points="3127.38,-108 2900.62,-108 2900.62,-72 3127.38,-72 3127.38,-108"/>
<text xml:space="preserve" text-anchor="start" x="2908.62" y="-85.5" font-family="Times,serif" font-size="14.00">backend.songs.services.mock_strategy</text>
</g>
<!-- backend.songs.services.generator_factory&#45;&gt;backend.songs.services.mock_strategy -->
<g id="edge8" class="edge">
<title>backend.songs.services.generator_factory&#45;&gt;backend.songs.services.mock_strategy</title>
<path fill="none" stroke="black" d="M3014,-36.3C3014,-43.68 3014,-52.48 3014,-60.75"/>
<polygon fill="black" stroke="black" points="3014,-70.68 3009.5,-60.68 3014,-66.9 3014,-60.68 3014,-60.68 3014,-60.68 3014,-66.9 3018.5,-60.68 3014,-70.68"/>
</g>
<!-- backend.songs.services.suno_strategy -->
<g id="node23" class="node">
<title>backend.songs.services.suno_strategy</title>
<polygon fill="none" stroke="black" points="3366.75,-108 3145.25,-108 3145.25,-72 3366.75,-72 3366.75,-108"/>
<text xml:space="preserve" text-anchor="start" x="3153.25" y="-85.5" font-family="Times,serif" font-size="14.00">backend.songs.services.suno_strategy</text>
</g>
<!-- backend.songs.services.generator_factory&#45;&gt;backend.songs.services.suno_strategy -->
<g id="edge9" class="edge">
<title>backend.songs.services.generator_factory&#45;&gt;backend.songs.services.suno_strategy</title>
<path fill="none" stroke="black" d="M3074.44,-36.48C3108.06,-46.21 3150.09,-58.36 3185.24,-68.53"/>
<polygon fill="black" stroke="black" points="3194.74,-71.28 3183.88,-72.82 3191.11,-70.23 3185.13,-68.5 3185.13,-68.5 3185.13,-68.5 3191.11,-70.23 3186.38,-64.18 3194.74,-71.28"/>
</g>
<!-- backend.songs.services.mock_strategy&#45;&gt;backend.songs.services.generator_strategy -->
<g id="edge10" class="edge">
<title>backend.songs.services.mock_strategy&#45;&gt;backend.songs.services.generator_strategy</title>
<path fill="none" stroke="black" d="M3014,-108.3C3014,-115.68 3014,-124.48 3014,-132.75"/>
<polygon fill="black" stroke="black" points="3014,-142.68 3009.5,-132.68 3014,-138.9 3014,-132.68 3014,-132.68 3014,-132.68 3014,-138.9 3018.5,-132.68 3014,-142.68"/>
</g>
<!-- backend.songs.services.suno_strategy&#45;&gt;backend.songs.services.generator_strategy -->
<g id="edge11" class="edge">
<title>backend.songs.services.suno_strategy&#45;&gt;backend.songs.services.generator_strategy</title>
<path fill="none" stroke="black" d="M3195.56,-108.48C3161.94,-118.21 3119.91,-130.36 3084.76,-140.53"/>
<polygon fill="black" stroke="black" points="3075.26,-143.28 3083.62,-136.18 3078.89,-142.23 3084.87,-140.5 3084.87,-140.5 3084.87,-140.5 3078.89,-142.23 3086.12,-144.82 3075.26,-143.28"/>
</g>
<!-- backend.songs.tasks -->
<g id="node24" class="node">
<title>backend.songs.tasks</title>
<polygon fill="none" stroke="black" points="1844.12,-36 1717.88,-36 1717.88,0 1844.12,0 1844.12,-36"/>
<text xml:space="preserve" text-anchor="start" x="1725.88" y="-13.5" font-family="Times,serif" font-size="14.00">backend.songs.tasks</text>
</g>
<!-- backend.songs.tasks.music -->
<g id="node25" class="node">
<title>backend.songs.tasks.music</title>
<polygon fill="none" stroke="black" points="1862.5,-108 1699.5,-108 1699.5,-72 1862.5,-72 1862.5,-108"/>
<text xml:space="preserve" text-anchor="start" x="1707.5" y="-85.5" font-family="Times,serif" font-size="14.00">backend.songs.tasks.music</text>
</g>
<!-- backend.songs.tasks&#45;&gt;backend.songs.tasks.music -->
<g id="edge12" class="edge">
<title>backend.songs.tasks&#45;&gt;backend.songs.tasks.music</title>
<path fill="none" stroke="black" d="M1781,-36.3C1781,-43.68 1781,-52.48 1781,-60.75"/>
<polygon fill="black" stroke="black" points="1781,-70.68 1776.5,-60.68 1781,-66.9 1781,-60.68 1781,-60.68 1781,-60.68 1781,-66.9 1785.5,-60.68 1781,-70.68"/>
</g>
<!-- backend.songs.urls -->
<g id="node26" class="node">
<title>backend.songs.urls</title>
<polygon fill="none" stroke="black" points="3319.75,-36 3200.25,-36 3200.25,0 3319.75,0 3319.75,-36"/>
<text xml:space="preserve" text-anchor="start" x="3208.25" y="-13.5" font-family="Times,serif" font-size="14.00">backend.songs.urls</text>
</g>
<!-- backend.songs.views -->
<g id="node27" class="node">
<title>backend.songs.views</title>
<polygon fill="none" stroke="black" points="1669.38,-36 1538.62,-36 1538.62,0 1669.38,0 1669.38,-36"/>
<text xml:space="preserve" text-anchor="start" x="1546.62" y="-13.5" font-family="Times,serif" font-size="14.00">backend.songs.views</text>
</g>
<!-- backend.songs.views&#45;&gt;backend.songs.models -->
<g id="edge13" class="edge">
<title>backend.songs.views&#45;&gt;backend.songs.models</title>
<path fill="none" stroke="black" d="M1561.51,-36.38C1545.62,-44.89 1528.82,-56.67 1518,-72 1505.54,-89.66 1500.97,-113.87 1499.42,-132.58"/>
<polygon fill="black" stroke="black" points="1498.86,-142.46 1494.93,-132.23 1499.07,-138.69 1499.42,-132.48 1499.42,-132.48 1499.42,-132.48 1499.07,-138.69 1503.92,-132.73 1498.86,-142.46"/>
</g>
<!-- backend.songs.views&#45;&gt;backend.songs.serializers -->
<g id="edge14" class="edge">
<title>backend.songs.views&#45;&gt;backend.songs.serializers</title>
<path fill="none" stroke="black" d="M1604,-36.3C1604,-43.68 1604,-52.48 1604,-60.75"/>
<polygon fill="black" stroke="black" points="1604,-70.68 1599.5,-60.68 1604,-66.9 1604,-60.68 1604,-60.68 1604,-60.68 1604,-66.9 1608.5,-60.68 1604,-70.68"/>
</g>
<!-- backend.songs.views&#45;&gt;backend.songs.tasks.music -->
<g id="edge15" class="edge">
<title>backend.songs.views&#45;&gt;backend.songs.tasks.music</title>
<path fill="none" stroke="black" d="M1648.21,-36.48C1672.06,-45.92 1701.69,-57.63 1726.9,-67.61"/>
<polygon fill="black" stroke="black" points="1735.92,-71.17 1724.96,-71.68 1732.4,-69.78 1726.62,-67.49 1726.62,-67.49 1726.62,-67.49 1732.4,-69.78 1728.27,-63.31 1735.92,-71.17"/>
</g>
<!-- backend.users -->
<g id="node28" class="node">
<title>backend.users</title>
<polygon fill="none" stroke="black" points="3523.25,-36 3430.75,-36 3430.75,0 3523.25,0 3523.25,-36"/>
<text xml:space="preserve" text-anchor="start" x="3438.75" y="-13.5" font-family="Times,serif" font-size="14.00">backend.users</text>
</g>
<!-- backend.users.admin -->
<g id="node29" class="node">
<title>backend.users.admin</title>
<polygon fill="none" stroke="black" points="3515.38,-108 3384.62,-108 3384.62,-72 3515.38,-72 3515.38,-108"/>
<text xml:space="preserve" text-anchor="start" x="3392.62" y="-85.5" font-family="Times,serif" font-size="14.00">backend.users.admin</text>
</g>
<!-- backend.users.models -->
<g id="node35" class="node">
<title>backend.users.models</title>
<polygon fill="none" stroke="black" points="3665,-180 3529,-180 3529,-144 3665,-144 3665,-180"/>
<text xml:space="preserve" text-anchor="start" x="3537" y="-157.5" font-family="Times,serif" font-size="14.00">backend.users.models</text>
</g>
<!-- backend.users.admin&#45;&gt;backend.users.models -->
<g id="edge16" class="edge">
<title>backend.users.admin&#45;&gt;backend.users.models</title>
<path fill="none" stroke="black" d="M3486.72,-108.48C3505.99,-117.66 3529.82,-129.01 3550.39,-138.8"/>
<polygon fill="black" stroke="black" points="3559.4,-143.09 3548.44,-142.86 3555.98,-141.47 3550.37,-138.8 3550.37,-138.8 3550.37,-138.8 3555.98,-141.47 3552.3,-134.73 3559.4,-143.09"/>
</g>
<!-- backend.users.apps -->
<g id="node30" class="node">
<title>backend.users.apps</title>
<polygon fill="none" stroke="black" points="3854.5,-36 3733.5,-36 3733.5,0 3854.5,0 3854.5,-36"/>
<text xml:space="preserve" text-anchor="start" x="3741.5" y="-13.5" font-family="Times,serif" font-size="14.00">backend.users.apps</text>
</g>
<!-- backend.users.migrations -->
<g id="node31" class="node">
<title>backend.users.migrations</title>
<polygon fill="none" stroke="black" points="4027.38,-36 3872.62,-36 3872.62,0 4027.38,0 4027.38,-36"/>
<text xml:space="preserve" text-anchor="start" x="3880.62" y="-13.5" font-family="Times,serif" font-size="14.00">backend.users.migrations</text>
</g>
<!-- backend.users.migrations.0001_initial -->
<g id="node32" class="node">
<title>backend.users.migrations.0001_initial</title>
<polygon fill="none" stroke="black" points="4268.88,-36 4045.12,-36 4045.12,0 4268.88,0 4268.88,-36"/>
<text xml:space="preserve" text-anchor="start" x="4053.12" y="-13.5" font-family="Times,serif" font-size="14.00">backend.users.migrations.0001_initial</text>
</g>
<!-- backend.users.migrations.0002_alter_user_username -->
<g id="node33" class="node">
<title>backend.users.migrations.0002_alter_user_username</title>
<polygon fill="none" stroke="black" points="4591.38,-36 4286.62,-36 4286.62,0 4591.38,0 4591.38,-36"/>
<text xml:space="preserve" text-anchor="start" x="4294.62" y="-13.5" font-family="Times,serif" font-size="14.00">backend.users.migrations.0002_alter_user_username</text>
</g>
<!-- backend.users.migrations.0003_alter_user_username -->
<g id="node34" class="node">
<title>backend.users.migrations.0003_alter_user_username</title>
<polygon fill="none" stroke="black" points="4914.38,-36 4609.62,-36 4609.62,0 4914.38,0 4914.38,-36"/>
<text xml:space="preserve" text-anchor="start" x="4617.62" y="-13.5" font-family="Times,serif" font-size="14.00">backend.users.migrations.0003_alter_user_username</text>
</g>
<!-- backend.users.permissions -->
<g id="node36" class="node">
<title>backend.users.permissions</title>
<polygon fill="none" stroke="black" points="3732.75,-108 3571.25,-108 3571.25,-72 3732.75,-72 3732.75,-108"/>
<text xml:space="preserve" text-anchor="start" x="3579.25" y="-85.5" font-family="Times,serif" font-size="14.00">backend.users.permissions</text>
</g>
<!-- backend.users.permissions&#45;&gt;backend.users.models -->
<g id="edge17" class="edge">
<title>backend.users.permissions&#45;&gt;backend.users.models</title>
<path fill="none" stroke="black" d="M3638.4,-108.3C3632.01,-116.44 3624.26,-126.31 3617.19,-135.3"/>
<polygon fill="black" stroke="black" points="3611.19,-142.94 3613.83,-132.29 3613.53,-139.96 3617.37,-135.07 3617.37,-135.07 3617.37,-135.07 3613.53,-139.96 3620.91,-137.85 3611.19,-142.94"/>
</g>
<!-- backend.users.serializers -->
<g id="node37" class="node">
<title>backend.users.serializers</title>
<polygon fill="none" stroke="black" points="3901.5,-108 3750.5,-108 3750.5,-72 3901.5,-72 3901.5,-108"/>
<text xml:space="preserve" text-anchor="start" x="3758.5" y="-85.5" font-family="Times,serif" font-size="14.00">backend.users.serializers</text>
</g>
<!-- backend.users.serializers&#45;&gt;backend.users.models -->
<g id="edge18" class="edge">
<title>backend.users.serializers&#45;&gt;backend.users.models</title>
<path fill="none" stroke="black" d="M3768.8,-108.48C3737.13,-118.17 3697.56,-130.26 3664.39,-140.4"/>
<polygon fill="black" stroke="black" points="3655.03,-143.26 3663.28,-136.04 3658.64,-142.16 3664.59,-140.34 3664.59,-140.34 3664.59,-140.34 3658.64,-142.16 3665.91,-144.64 3655.03,-143.26"/>
</g>
<!-- backend.users.urls -->
<g id="node38" class="node">
<title>backend.users.urls</title>
<polygon fill="none" stroke="black" points="5049.25,-36 4932.75,-36 4932.75,0 5049.25,0 5049.25,-36"/>
<text xml:space="preserve" text-anchor="start" x="4940.75" y="-13.5" font-family="Times,serif" font-size="14.00">backend.users.urls</text>
</g>
<!-- backend.users.views -->
<g id="node39" class="node">
<title>backend.users.views</title>
<polygon fill="none" stroke="black" points="3715.88,-36 3588.12,-36 3588.12,0 3715.88,0 3715.88,-36"/>
<text xml:space="preserve" text-anchor="start" x="3596.12" y="-13.5" font-family="Times,serif" font-size="14.00">backend.users.views</text>
</g>
<!-- backend.users.views&#45;&gt;backend.users.models -->
<g id="edge19" class="edge">
<title>backend.users.views&#45;&gt;backend.users.models</title>
<path fill="none" stroke="black" d="M3602.97,-36.27C3587.01,-44.5 3571.09,-56.1 3562,-72 3550.56,-92.01 3561.82,-116.48 3574.52,-134.7"/>
<polygon fill="black" stroke="black" points="3580.45,-142.62 3570.86,-137.32 3578.18,-139.6 3574.46,-134.62 3574.46,-134.62 3574.46,-134.62 3578.18,-139.6 3578.06,-131.92 3580.45,-142.62"/>
</g>
<!-- backend.users.views&#45;&gt;backend.users.permissions -->
<g id="edge20" class="edge">
<title>backend.users.views&#45;&gt;backend.users.permissions</title>
<path fill="none" stroke="black" d="M3652,-36.3C3652,-43.68 3652,-52.48 3652,-60.75"/>
<polygon fill="black" stroke="black" points="3652,-70.68 3647.5,-60.68 3652,-66.9 3652,-60.68 3652,-60.68 3652,-60.68 3652,-66.9 3656.5,-60.68 3652,-70.68"/>
</g>
<!-- backend.users.views&#45;&gt;backend.users.serializers -->
<g id="edge21" class="edge">
<title>backend.users.views&#45;&gt;backend.users.serializers</title>
<path fill="none" stroke="black" d="M3695.46,-36.48C3718.8,-45.87 3747.77,-57.53 3772.49,-67.47"/>
<polygon fill="black" stroke="black" points="3781.66,-71.16 3770.71,-71.61 3778.16,-69.75 3772.39,-67.43 3772.39,-67.43 3772.39,-67.43 3778.16,-69.75 3774.07,-63.26 3781.66,-71.16"/>
</g>
</g>
</svg>
